{"title":"Girls Nite Out (1982) fiveofseven zombiRG","uid":12460094,"size":1086837041,"categoryP":"video","categoryS":"movies","magnet":"?xt=urn:btih:014b08446cc359a16420d4690233fda2632cf47e&amp;dn=Girls+Nite+Out+%281982%29+fiveofseven+zombiRG&amp;tr=udp%3A%2F%2Ftracker.openbittorrent.com%3A80&amp;tr=udp%3A%2F%2Fopen.demonii.com%3A1337&amp;tr=udp%3A%2F%2Ftracker.coppersurfer.tk%3A6969&amp;tr=udp%3A%2F%2Fexodus.desync.com%3A6969","seeders":4,"leechers":4,"uploader":"fiveofseven","files":2,"time":1442793732,"description":"PLOT - A killer, wearing a dancing bear suit, stalks a variety\nof cheerleaders during an all-night scavenger hunt at a remote Ohio college.\n\n\n\nINFO\n\nEncoder: fiveofseven\nSource: DVD\nRating: R\nGenre: Horror, Mystery, Thriller\nSubtitles: None\nPoster: https://yuq.me/users/25/564/QrHdl8V93y.jpg \n \nGeneral\nComplete name                            : Girls Nite Out fiveofseven zombiRG.mp4\nFormat                                   : MPEG-4\nFormat profile                           : Base Media\nCodec ID                                 : isom\nFile size                                : 1.01 GiB\nDuration                                 : 1h 37mn\nOverall bit rate mode                    : Variable\nOverall bit rate                         : 1 482 Kbps\nEncoded date                             : UTC 2015-07-18 18:01:32\nTagged date                              : UTC 2015-07-18 19:07:21\nWriting application                      : My MP4Box GUI 0.6.0.6 \nComment                                  : Encoded by fiveofseven\n\nVideo\nID                                       : 1\nFormat                                   : AVC\nFormat/Info                              : Advanced Video Codec\nFormat profile                           : &lt;a class=&quot;__cf_email__&quot; href=&quot;/cdn-cgi/l/email-protection&quot; data-cfemail=&quot;773f1e101f373b445947&quot;&gt;[email&amp;#160;protected]&lt;/a&gt;&lt;script data-cfhash='f9e31' type=&quot;text/javascript&quot;&gt;\n/* &lt;![CDATA[ */!function(){try{var t=&quot;currentScript&quot;in document?document.currentScript:function(){for(var t=document.getElementsByTagName(&quot;script&quot;),e=t.length;e--;)if(t[e].getAttribute(&quot;data-cfhash&quot;))return t[e]}();if(t&amp;&amp;t.previousSibling){var e,r,n,i,c=t.previousSibling,a=c.getAttribute(&quot;data-cfemail&quot;);if(a){for(e=&quot;&quot;,r=parseInt(a.substr(0,2),16),n=2;a.length-n;n+=2)i=parseInt(a.substr(n,2),16)^r,e+=String.fromCharCode(i);e=document.createTextNode(e),c.parentNode.replaceChild(e,c)}t.parentNode.removeChild(t);}}catch(u){}}()/* ]]&gt; */&lt;/script&gt;\nFormat settings, CABAC                   : Yes\nFormat settings, ReFrames                : 7 frames\nCodec ID                                 : avc1\nCodec ID/Info                            : Advanced Video Coding\nDuration                                 : 1h 37mn\nBit rate                                 : 1 350 Kbps\nMaximum bit rate                         : 4 609 Kbps\nWidth                                    : 704 pixels\nHeight                                   : 384 pixels\nDisplay aspect ratio                     : 1.85:1\nFrame rate mode                          : Constant\nFrame rate                               : 23.976 fps\nColor space                              : YUV\nChroma subsampling                       : 4:2:0\nBit depth                                : 8 bits\nScan type                                : Progressive\nBits/(Pixel*Frame)                       : 0.208\nStream size                              : 938 MiB (91%)\nTitle                                    : GNO.mp4\nWriting library                          : x264 core 133 r2334 a3ac64b\nLanguage                                 : English\nEncoded date                             : UTC 2015-07-18 00:19:22\nTagged date                              : UTC 2015-07-18 18:03:30\n\nAudio\nID                                       : 2\nFormat                                   : AAC\nFormat/Info                              : Advanced Audio Codec\nFormat profile                           : LC\nCodec ID                                 : 40\nDuration                                 : 1h 36mn\nBit rate mode                            : Variable\nBit rate                                 : 128 Kbps\nMaximum bit rate                         : 132 Kbps\nChannel count                            : 2 channels\nChannel positions                        : Front: L R\nSampling rate                            : 48.0 KHz\nCompression mode                         : Lossy\nDelay relative to video                  : 83ms\nStream size                              : 88.7 MiB (9%)\nTitle                                    : aac.mp4\nLanguage                                 : English\nEncoded date                             : UTC 2015-07-18 18:03:25\nTagged date                              : UTC 2015-07-18 18:03:30\n\n\nScreenshots - \n  &lt;a href=&quot;\nhttps://yuq.me/users/25/564/zdBMGyER3s.png&quot; rel=&quot;nofollow&quot; target=&quot;_NEW&quot;&gt;\nhttps://yuq.me/users/25/564/zdBMGyER3s.png&lt;/a&gt; \n  &lt;a href=&quot;\nhttps://yuq.me/users/25/564/072tf8ESju.png&quot; rel=&quot;nofollow&quot; target=&quot;_NEW&quot;&gt;\nhttps://yuq.me/users/25/564/072tf8ESju.png&lt;/a&gt; \n  &lt;a href=&quot;\nhttps://yuq.me/users/25/564/8na5pLbrNZ.png&quot; rel=&quot;nofollow&quot; target=&quot;_NEW&quot;&gt;\nhttps://yuq.me/users/25/564/8na5pLbrNZ.png&lt;/a&gt; \n  &lt;a href=&quot;\nhttps://yuq.me/users/25/564/M4l2UPKfE7.png&quot; rel=&quot;nofollow&quot; target=&quot;_NEW&quot;&gt;\nhttps://yuq.me/users/25/564/M4l2UPKfE7.png&lt;/a&gt; \n  &lt;a href=&quot;\nhttps://yuq.me/users/25/564/ckqIr5EV7K.png&quot; rel=&quot;nofollow&quot; target=&quot;_NEW&quot;&gt;\nhttps://yuq.me/users/25/564/ckqIr5EV7K.png&lt;/a&gt; \n \nsignature \n  &lt;a href=&quot;\nhttps://yuq.me/users/25/564/aegRQCBILx.png&quot; rel=&quot;nofollow&quot; target=&quot;_NEW&quot;&gt;\nhttps://yuq.me/users/25/564/aegRQCBILx.png&lt;/a&gt;","torrent":{"xt":"urn:btih:014b08446cc359a16420d4690233fda2632cf47e","amp;dn":"Girls+Nite+Out+%281982%29+fiveofseven+zombiRG","amp;tr":["udp%3A%2F%2Ftracker.openbittorrent.com%3A80","udp%3A%2F%2Fopen.demonii.com%3A1337","udp%3A%2F%2Ftracker.coppersurfer.tk%3A6969","udp%3A%2F%2Fexodus.desync.com%3A6969"],"infoHash":"014b08446cc359a16420d4690233fda2632cf47e","infoHashBuffer":{"type":"Buffer","data":[1,75,8,68,108,195,89,161,100,32,212,105,2,51,253,162,99,44,244,126]},"announce":[],"urlList":[]}}